# xmcd
#
# Track frame offsets: 
#        150
#        14914
#        32379
#        45958
#        63062
#        84108
#        101878
#        121078
#        137097
#        154576
#        174115
#        182114
#
# Disc length: 2612 seconds
#
# Revision: 0
# Processed by: cddbd v1.5.2PL0 Copyright (c) Steve Scherf et al.
# Submitted via: ExactAudioCopy v0.95b4
#
DISCID=860a320c
DTITLE=Kenny Rogers - Amazing Grace
DYEAR=2011
DGENRE=Country
TTITLE0=I'll Fly Away (Featuring The Whites)
TTITLE1=The Rock Of Your Love
TTITLE2=What A Friend We Have In Jesus
TTITLE3=Circle Of Friends (Featuring Point of Grace)
TTITLE4=Will The Circle Be Unbroken
TTITLE5=For The Love Of God
TTITLE6=Amazing Grace
TTITLE7=Peace
TTITLE8=In The Sweet By And By (Featuring Winfield's Locket)
TTITLE9=Grace
TTITLE10=Leaning On The Everlasting Arms
TTITLE11=He Showed Me Love
EXTD=
EXTT0=
EXTT1=
EXTT2=
EXTT3=
EXTT4=
EXTT5=
EXTT6=
EXTT7=
EXTT8=
EXTT9=
EXTT10=
EXTT11=
PLAYORDER=
